# xmcd
#
# Track frame offsets:
# 150
# 12660
# 29536
# 43854
# 61777
# 75341
# 88887
# 101624
# 115836
# 133829
# 152812
# 171425
# 180570
# 191100
# 215580
# 229428
# 247824
# 260042
# 273781
#
# Disc length: 3834 seconds
#
#
# Revision: 0
# Processed by: cddbd v1.5.1PL0 Copyright (c) Steve Scherf et al.
# Submitted via: FreeRIP 2.941 
#
DISCID=110ef813
DTITLE=Santiago Campillo and Miguel Bañon - Yeah!
DYEAR=2004
DGENRE=Blues Rock Acustico
TTITLE0=The Stumble
TTITLE1=Moondance
TTITLE2=She's a Woman
TTITLE3=You Better Think Twice
TTITLE4=Hallelujah, I Love Her So
TTITLE5=Ramblin' Man
TTITLE6=Willin
TTITLE7=The Loop
TTITLE8=Can't Find My Way Home
TTITLE9=Baby What Tou Want Me To Do
TTITLE10=Mystery Train
TTITLE11=Love In Vain
TTITLE12=Memphis
TTITLE13=I Don't Want To Talk About It
TTITLE14=Ophelia
TTITLE15=Little Wing
TTITLE16=Slow Down
TTITLE17=El Final
TTITLE18=Hide Away
EXTD=
EXTT0=
EXTT1=
EXTT2=
EXTT3=
EXTT4=
EXTT5=
EXTT6=
EXTT7=
EXTT8=
EXTT9=
EXTT10=
EXTT11=
EXTT12=
EXTT13=
EXTT14=
EXTT15=
EXTT16=
EXTT17=
EXTT18=
PLAYORDER=
